<?xml version="1.0" encoding="UTF-8"?>
<svg xmlns="http://www.w3.org/2000/svg" xmlns:xlink="http://www.w3.org/1999/xlink" width="512" height="512" viewBox="0 0 60 55" version="1.1"><!-- Generator: Sketch 51.3 (57544) - http://www.bohemiancoding.com/sketch --><title>014 - Gold Ingots</title><desc>Created with Sketch.</desc><defs/><g id="Page-1" stroke="none" stroke-width="1" fill="none" fill-rule="evenodd"><g id="014---Gold-Ingots" transform="translate(-1.000000, 0.000000)" fill-rule="nonzero"><path d="M47.5,15.92 L44.08,16.81 L22.31,22.45 L19.08,21.23 L19.07,21.23 L16.32,20.2 C17.1700947,19.3724034 18.2508358,18.8215741 19.42,18.62 C19.4610375,18.6065116 19.488775,18.5681973 19.488775,18.525 C19.488775,18.4818027 19.4610375,18.4434884 19.42,18.43 C19.1484724,18.3800355 18.8810604,18.3098398 18.62,18.22 C18.4899632,18.1872263 18.3628625,18.1437445 18.24,18.09 L37.29,13.19 L47.5,15.92 Z" id="Shape" fill="#FDD834"/><path d="M19.42,18.62 C18.2811687,18.813622 17.2260961,19.3428993 16.39,20.14 C16.37,20.16 16.34,20.18 16.32,20.2 L16.24,20.28 C15.9061951,20.6134703 15.6140625,20.9861911 15.37,21.39 C14.9709179,22.0212392 14.6991498,22.7244391 14.57,23.46 C14.5565116,23.5010375 14.5181973,23.528775 14.475,23.528775 C14.4318027,23.528775 14.3934884,23.5010375 14.38,23.46 C14.3173306,23.1057964 14.2236364,22.7577895 14.1,22.42 C13.8810629,21.834685 13.5705258,21.2878696 13.18,20.8 L13.18,20.79 C13.03,20.61 12.88,20.44 12.72,20.28 C12.1136164,19.674593 11.3836455,19.2072752 10.58,18.91 C10.2444259,18.7772383 9.89585231,18.6800399 9.54,18.62 C9.49896255,18.6065116 9.47122499,18.5681973 9.47122499,18.525 C9.47122499,18.4818027 9.49896255,18.4434884 9.54,18.43 C10.2663672,18.3014579 10.9619026,18.0368152 11.59,17.65 C12.0603496,17.3690784 12.4880275,17.0222215 12.86,16.62 C13.6481924,15.7737324 14.1759013,14.7183145 14.38,13.58 C14.3934884,13.5389625 14.4318027,13.511225 14.475,13.511225 C14.5181973,13.511225 14.5565116,13.5389625 14.57,13.58 C14.7839703,14.7873473 15.3674936,15.8984876 16.24,16.76 C16.8037609,17.3414051 17.4858039,17.7949637 18.24,18.09 C18.6200208,18.2452685 19.0156246,18.359256 19.42,18.43 C19.4610375,18.4434884 19.488775,18.4818027 19.488775,18.525 C19.488775,18.5681973 19.4610375,18.6065116 19.42,18.62 Z" id="Shape" fill="#CFD8DC"/><path d="M17.42,20.62 C16.2519261,20.8248449 15.1721006,21.3752075 14.32,22.2 L14.24,22.28 L14.1,22.42 C13.8810629,21.834685 13.5705258,21.2878696 13.18,20.8 L13.18,20.79 C13.03,20.61 12.88,20.44 12.72,20.28 C12.1136164,19.674593 11.3836455,19.2072752 10.58,18.91 C10.9683334,18.5341625 11.3076813,18.1108175 11.59,17.65 C11.9816908,17.0160797 12.2497498,16.3136972 12.38,15.58 C12.3934884,15.5389625 12.4318027,15.511225 12.475,15.511225 C12.5181973,15.511225 12.5565116,15.5389625 12.57,15.58 C12.6300399,15.9358523 12.7272383,16.2844259 12.86,16.62 C13.1584583,17.4254234 13.6294637,18.1558232 14.24,18.76 C14.8037609,19.3414051 15.4858039,19.7949637 16.24,20.09 C16.2883984,20.1111339 16.338601,20.1278681 16.39,20.14 C16.7221378,20.2727427 17.067395,20.3699511 17.42,20.43 C17.4610375,20.4434884 17.488775,20.4818027 17.488775,20.525 C17.488775,20.5681973 17.4610375,20.6065116 17.42,20.62 Z" id="Shape" fill="#F5F5F5"/><polygon id="Shape" fill="#FFEB3A" points="12.19 23.43 10.55 27.79 5.21 25.65"/><polygon id="Shape" fill="#624421" points="20.27 31.83 16.97 40.63 13.86 29.21"/><polygon id="Shape" fill="#F57C00" points="16.97 40.63 13.88 39.31 2 34.21 5.14 25.83 5.21 25.65 10.55 27.79 13.86 29.21"/><polygon id="Shape" fill="#FF9801" points="13.88 39.31 2 34.21 5.14 25.83 7.55 26.79 10.86 28.21"/><polygon id="Shape" fill="#F57C00" points="33.86 48 30.78 46.66 16.97 40.63 20.2 32.02 20.27 31.83 25.85 34.1 25.86 34.1 31.13 36.24"/><polygon id="Shape" fill="#FF9801" points="30.78 46.66 16.97 40.63 20.2 32.02 22.85 33.1 22.86 33.1 28.13 35.24"/><polygon id="Shape" fill="#FDD834" points="56.31 28.75 53.15 29.69 31.13 36.24 26.06 34.18 25.86 34.1 51.19 26.83"/><path d="M44.08,16.81 L22.31,22.45 L19.08,21.23 L19.07,21.23 L16.32,20.2 C17.1700947,19.3724034 18.2508358,18.8215741 19.42,18.62 C19.4610375,18.6065116 19.488775,18.5681973 19.488775,18.525 C19.488775,18.4818027 19.4610375,18.4434884 19.42,18.43 C19.1484724,18.3800355 18.8810604,18.3098398 18.62,18.22 L34.29,14.19 L44.08,16.81 Z" id="Shape" fill="#FFEB3A"/><polygon id="Shape" fill="#FFEB3A" points="53.15 29.69 31.13 36.24 26.06 34.18 48.19 27.83"/><polygon id="Shape" fill="#FEC108" points="60 39.45 56.99 40.43 33.86 48 31.15 36.34 31.13 36.24 56.31 28.75"/><polygon id="Shape" fill="#FFDC00" points="56.99 40.43 33.86 48 31.15 36.34 53.31 29.75"/><path d="M25.85,34.1 L22.77,32.85 L20.27,31.83 L13.86,29.21 L10.55,27.79 L12.19,23.43 L13.18,20.8 C13.7994416,21.5703485 14.2124276,22.4858007 14.38,23.46 C14.3934884,23.5010375 14.4318027,23.528775 14.475,23.528775 C14.5181973,23.528775 14.5565116,23.5010375 14.57,23.46 C14.7891172,22.2594626 15.3680492,21.1539117 16.23,20.29 L16.24,20.28 L16.32,20.2 L19.07,21.23 L19.08,21.23 L22.31,22.45 L25.85,34.1 Z" id="Shape" fill="#F57C00"/><path d="M22.77,32.85 L20.27,31.83 L13.86,29.21 L10.55,27.79 L12.19,23.43 L13.18,20.8 C13.7994416,21.5703485 14.2124276,22.4858007 14.38,23.46 C14.3934884,23.5010375 14.4318027,23.528775 14.475,23.528775 C14.5181973,23.528775 14.5565116,23.5010375 14.57,23.46 C14.7891172,22.2594626 15.3680492,21.1539117 16.23,20.29 L19.31,21.45 L22.77,32.85 Z" id="Shape" fill="#FF9801"/><polygon id="Shape" fill="#FEC108" points="51.19 26.83 48.15 27.7 25.86 34.1 25.85 34.1 22.37 22.66 22.31 22.45 47.5 15.92"/><polygon id="Shape" fill="#FFDC00" points="48.15 27.7 25.86 34.1 25.85 34.1 22.37 22.66 44.5 16.92"/><path d="M33.857,49 C33.7193055,48.9998375 33.5831282,48.9712403 33.457,48.916 L16.57,41.542 C16.0825389,41.3291492 15.8470045,40.7719523 16.034,40.274 L19.334,31.474 C19.4286389,31.2210764 19.6215484,31.017181 19.8688482,30.9086931 C20.116148,30.8002051 20.3968125,30.7963483 20.647,30.898 L31.506,35.31 C31.8080472,35.4317194 32.031908,35.6928904 32.106,36.01 L34.835,47.772 C34.9047878,48.0700118 34.8342547,48.3835723 34.6435752,48.622994 C34.4528958,48.8624156 34.1630712,49.0013287 33.857,49 Z M18.24,40.088 L32.434,46.288 L30.272,36.97 L20.846,33.14 L18.24,40.088 Z" id="Shape" fill="#000000"/><path d="M31.128,37.238 C30.6309107,37.2382955 30.2090696,36.873419 30.1377511,36.3814723 C30.0664326,35.8895256 30.3672912,35.4198779 30.844,35.279 L53.167,28.641 L50.839,27.769 C50.4968476,27.6494945 50.2461344,27.3542175 50.1836941,26.9972147 C50.1212538,26.6402118 50.2568606,26.277367 50.5381386,26.0488226 C50.8194166,25.8202783 51.2023357,25.76181 51.539,25.896 L56.658,27.813 C57.0604062,27.9637711 57.321496,28.3547734 57.3065384,28.784237 C57.2915808,29.2137005 57.0039207,29.5855907 56.592,29.708 L31.414,37.2 C31.3209736,37.2262743 31.2246598,37.2390713 31.128,37.238 Z" id="Shape" fill="#000000"/><path d="M20.378,33 L20.368,33 C19.8166982,32.9972435 19.3716248,32.5488195 19.3730031,31.9975125 C19.3743814,31.4462055 19.8216913,31.0000125 20.373,31.0000125 C20.9243087,31.0000125 21.3716186,31.4462055 21.3729969,31.9975125 C21.3743752,32.5488195 20.9293018,32.9972435 20.378,33 Z" id="Shape" fill="#000000"/><path d="M33.857,49 C33.3647982,49.0008929 32.9451353,48.6434854 32.8676538,48.1574196 C32.7901722,47.6713538 33.0779146,47.2011821 33.546,47.049 L58.724,38.811 L55.368,29.079 C55.2432465,28.739316 55.3117396,28.3587359 55.5470955,28.0838609 C55.7824513,27.8089858 56.1479456,27.6827066 56.5027883,27.7536665 C56.857631,27.8246263 57.1464535,28.081753 57.258,28.426 L60.945,39.119 C61.0325553,39.3723466 61.0147349,39.6502377 60.8955369,39.8903257 C60.776339,40.1304137 60.5657436,40.3125967 60.311,40.396 L34.168,48.95 C34.0676621,48.9831409 33.9626694,49.0000207 33.857,49 Z" id="Shape" fill="#000000"/><path d="M5.211,26.653 C4.71846387,26.6515438 4.30033136,26.2916615 4.22554977,25.8048334 C4.15076818,25.3180052 4.44160887,24.8492177 4.911,24.7 L11.89,22.476 C12.2324158,22.3598432 12.6108656,22.437579 12.8797703,22.6793046 C13.148675,22.9210301 13.266145,23.2890898 13.1869928,23.6419012 C13.1078406,23.9947127 12.8443965,24.2773154 12.498,24.381 L5.518,26.605 C5.41889063,26.6373086 5.31524131,26.6535144 5.211,26.653 Z" id="Shape" fill="#000000"/><path d="M19.083,22.233 L19.074,22.233 C18.5225993,22.2305187 18.0772619,21.782165 18.0785025,21.2307601 C18.0797432,20.6793552 18.5270937,20.2330101 19.0785,20.2330101 C19.6299063,20.2330101 20.0772568,20.6793552 20.0784975,21.2307601 C20.0797381,21.782165 19.6344007,22.2305187 19.083,22.233 Z" id="Shape" fill="#000000"/><path d="M25.85,35.1 C25.409426,35.0999883 25.0207665,34.811641 24.893,34.39 L21.5,23.212 L18.8,22.191 C18.775,22.184 18.75,22.175 18.726,22.167 L15.976,21.137 C15.6338476,21.0174945 15.3831344,20.7222175 15.3206941,20.3652147 C15.2582538,20.0082118 15.3938606,19.645367 15.6751386,19.4168226 C15.9564166,19.1882783 16.3393357,19.12981 16.676,19.264 L19.36,20.264 C19.387,20.271 19.414,20.28 19.44,20.289 L22.67,21.51 C22.9590269,21.6205809 23.1805739,21.8587439 23.27,22.155 L26.81,33.805 C26.9702254,34.3332394 26.6721243,34.8913956 26.144,35.052 C26.0488872,35.0823438 25.9498248,35.0985173 25.85,35.1 Z" id="Shape" fill="#000000"/><path d="M28.729,36.28 C28.5993291,36.2797443 28.4709456,36.2542714 28.351,36.205 L13.482,30.136 L10.156,28.709 C9.66462227,28.4983358 9.42586035,27.9384348 9.614,27.438 L12.244,20.438 C12.4453678,19.9327959 13.0135694,19.6811454 13.5230105,19.8715398 C14.0324515,20.0619342 14.2963319,20.6245603 14.117,21.138 L11.817,27.245 L14.249,28.288 L29.104,34.351 C29.5471779,34.5316762 29.8002112,35.0010311 29.7075708,35.4705716 C29.6149304,35.9401121 29.2025907,36.2781889 28.724,36.277 L28.729,36.28 Z" id="Shape" fill="#000000"/><path d="M22.319,23.45 C21.8158004,23.4495227 21.3913339,23.0752085 21.3279207,22.5760202 C21.2645076,22.076832 21.5819023,21.6082772 22.069,21.482 L43.569,15.905 L37.281,14.224 L18.481,19.058 C18.132109,19.1562737 17.7573536,19.0580596 17.5015081,18.8012994 C17.2456627,18.5445392 17.1487868,18.1694356 17.2483052,17.8208976 C17.3478236,17.4723595 17.628154,17.20496 17.981,17.122 L37.031,12.222 C37.1971351,12.1779922 37.3718649,12.1779922 37.538,12.222 L47.748,14.952 C48.1867641,15.0692898 48.4913866,15.4675299 48.4897428,15.9216974 C48.488099,16.3758649 48.1806016,16.7718894 47.741,16.886 L22.561,23.416 C22.4820267,23.4371843 22.4007533,23.4486029 22.319,23.45 Z" id="Shape" fill="#000000"/><path d="M25.852,35.1 C25.3524113,35.1014818 24.9283775,34.7340256 24.8587839,34.2393056 C24.7891903,33.7445857 25.0953913,33.2744053 25.576,33.138 L49.907,26.16 L46.552,16.243 C46.4283897,15.9022915 46.498807,15.5213685 46.7360524,15.2473677 C46.9732977,14.9733668 47.3402301,14.8491833 47.6951169,14.9227846 C48.0500037,14.9963859 48.3372871,15.2562496 48.446,15.602 L52.137,26.512 C52.2247124,26.7708973 52.202619,27.0544155 52.0758594,27.2966 C51.9490999,27.5387844 51.7287248,27.7185218 51.466,27.794 L26.128,35.06 C26.038276,35.0859566 25.9454013,35.0994167 25.852,35.1 Z" id="Shape" fill="#000000"/><path d="M16.975,41.627 C16.8396051,41.6272812 16.7055633,41.6000645 16.581,41.547 L1.606,35.133 C1.1147582,34.9227346 0.87561714,34.3634175 1.063,33.863 L4.275,25.3 C4.36951306,25.0481367 4.56151619,24.8449752 4.80764477,24.7364001 C5.05377334,24.627825 5.33326663,24.6229947 5.583,24.723 L10.926,26.864 C11.2649423,26.9917581 11.5082999,27.2928166 11.562171,27.6510092 C11.6160421,28.0092018 11.4720037,28.3685234 11.1856343,28.5903265 C10.8992649,28.8121297 10.5153398,28.8617343 10.182,28.72 L5.789,26.961 L3.272,33.671 L15.465,38.893 L12.894,29.473 C12.748473,28.9400452 13.0625452,28.390027 13.5955,28.2445 C14.1284548,28.098973 14.678473,28.4130452 14.824,28.946 L17.939,40.364 C18.0209275,40.6645446 17.9581173,40.9861023 17.7691156,41.233726 C17.5801138,41.4813497 17.286511,41.6267521 16.975,41.627 Z" id="Shape" fill="#000000"/><path d="M14.478,24.546 C13.945854,24.5433542 13.4919107,24.1601553 13.4,23.636 C13.0237126,21.5828744 11.4171256,19.9762874 9.364,19.6 C8.83951173,19.5093001 8.45641888,19.0542729 8.45641888,18.522 C8.45641888,17.9897271 8.83951173,17.5346999 9.364,17.444 C11.4205117,17.0720124 13.0304849,15.4632348 13.404,13.407 C13.4934226,12.881686 13.9486293,12.4974196 14.4815,12.4974196 C15.0143707,12.4974196 15.4695774,12.881686 15.559,13.407 C15.9359488,15.4594127 17.5416807,17.0655426 19.594,17.443 C20.1184883,17.5336999 20.5015811,17.9887271 20.5015811,18.521 C20.5015811,19.0532729 20.1184883,19.5083001 19.594,19.599 C17.5406723,19.9749372 15.9334631,21.5809522 15.556,23.634 C15.4649492,24.1589498 15.01078,24.543182 14.478,24.546 Z M12.084,18.521 C12.5742523,18.8176287 13.0260033,19.1736555 13.429,19.581 C13.8325067,19.9800755 14.1851765,20.4274625 14.479,20.913 C15.0755011,19.9395198 15.8937697,19.1209086 16.867,18.524 C15.8918294,17.9264854 15.072107,17.1064203 14.475,16.131 C13.8834764,17.1096718 13.0629192,17.9298859 12.084,18.521 Z" id="Shape" fill="#000000"/><path d="M49,49 C48.4477153,49 48,48.5522847 48,48 L48,46 C48,45.4477153 48.4477153,45 49,45 C49.5522847,45 50,45.4477153 50,46 L50,48 C50,48.5522847 49.5522847,49 49,49 Z" id="Shape" fill="#000000"/><path d="M47,51 L45,51 C44.4477153,51 44,50.5522847 44,50 C44,49.4477153 44.4477153,49 45,49 L47,49 C47.5522847,49 48,49.4477153 48,50 C48,50.5522847 47.5522847,51 47,51 Z" id="Shape" fill="#000000"/><path d="M49,55 C48.4477153,55 48,54.5522847 48,54 L48,52 C48,51.4477153 48.4477153,51 49,51 C49.5522847,51 50,51.4477153 50,52 L50,54 C50,54.5522847 49.5522847,55 49,55 Z" id="Shape" fill="#000000"/><path d="M53,51 L51,51 C50.4477153,51 50,50.5522847 50,50 C50,49.4477153 50.4477153,49 51,49 L53,49 C53.5522847,49 54,49.4477153 54,50 C54,50.5522847 53.5522847,51 53,51 Z" id="Shape" fill="#000000"/><path d="M25,4 C24.4477153,4 24,3.55228475 24,3 L24,1 C24,0.44771525 24.4477153,0 25,0 C25.5522847,0 26,0.44771525 26,1 L26,3 C26,3.55228475 25.5522847,4 25,4 Z" id="Shape" fill="#000000"/><path d="M23,6 L21,6 C20.4477153,6 20,5.55228475 20,5 C20,4.44771525 20.4477153,4 21,4 L23,4 C23.5522847,4 24,4.44771525 24,5 C24,5.55228475 23.5522847,6 23,6 Z" id="Shape" fill="#000000"/><path d="M25,10 C24.4477153,10 24,9.55228475 24,9 L24,7 C24,6.44771525 24.4477153,6 25,6 C25.5522847,6 26,6.44771525 26,7 L26,9 C26,9.55228475 25.5522847,10 25,10 Z" id="Shape" fill="#000000"/><path d="M29,6 L27,6 C26.4477153,6 26,5.55228475 26,5 C26,4.44771525 26.4477153,4 27,4 L29,4 C29.5522847,4 30,4.44771525 30,5 C30,5.55228475 29.5522847,6 29,6 Z" id="Shape" fill="#000000"/><path d="M16.414,49.586 C16.0096041,49.5859137 15.6450659,49.3422725 15.490322,48.9686546 C15.3355781,48.5950366 15.4210921,48.1649943 15.707,47.879 L17.122,46.464 C17.5143789,46.0850278 18.1380848,46.0904476 18.5238186,46.4761814 C18.9095524,46.8619152 18.9149722,47.4856211 18.536,47.878 L17.121,49.293 C16.9335073,49.4805494 16.6791948,49.5859434 16.414,49.586 Z" id="Shape" fill="#000000"/><path d="M13.586,49.586 C13.3208052,49.5859434 13.0664927,49.4805494 12.879,49.293 L11.464,47.878 C11.2040434,47.6269255 11.0997874,47.2551221 11.1913028,46.9054927 C11.2828183,46.5558632 11.5558632,46.2828183 11.9054927,46.1913028 C12.2551221,46.0997874 12.6269255,46.2040434 12.878,46.464 L14.293,47.879 C14.5789079,48.1649943 14.6644219,48.5950366 14.509678,48.9686546 C14.3549341,49.3422725 13.9903959,49.5859137 13.586,49.586 Z" id="Shape" fill="#000000"/><path d="M12.171,53.829 C11.7666041,53.8289137 11.4020659,53.5852725 11.247322,53.2116546 C11.0925781,52.8380366 11.1780921,52.4079943 11.464,52.122 L12.879,50.707 C13.2713789,50.3280278 13.8950848,50.3334476 14.2808186,50.7191814 C14.6665524,51.1049152 14.6719722,51.7286211 14.293,52.121 L12.878,53.536 C12.6905073,53.7235494 12.4361948,53.8289434 12.171,53.829 Z" id="Shape" fill="#000000"/><path d="M17.829,53.829 C17.5638052,53.8289434 17.3094927,53.7235494 17.122,53.536 L15.707,52.121 C15.3280278,51.7286211 15.3334476,51.1049152 15.7191814,50.7191814 C16.1049152,50.3334476 16.7286211,50.3280278 17.121,50.707 L18.536,52.122 C18.8219079,52.4079943 18.9074219,52.8380366 18.752678,53.2116546 C18.5979341,53.5852725 18.2333959,53.8289137 17.829,53.829 Z" id="Shape" fill="#000000"/><path d="M54,13 C53.4477153,13 53,12.5522847 53,12 L53,11 C53,10.4477153 53.4477153,10 54,10 C54.5522847,10 55,10.4477153 55,11 L55,12 C55,12.5522847 54.5522847,13 54,13 Z" id="Shape" fill="#000000"/><path d="M54,18 C53.4477153,18 53,17.5522847 53,17 L53,16 C53,15.4477153 53.4477153,15 54,15 C54.5522847,15 55,15.4477153 55,16 L55,17 C55,17.5522847 54.5522847,18 54,18 Z" id="Shape" fill="#000000"/><path d="M57,15 L56,15 C55.4477153,15 55,14.5522847 55,14 C55,13.4477153 55.4477153,13 56,13 L57,13 C57.5522847,13 58,13.4477153 58,14 C58,14.5522847 57.5522847,15 57,15 Z" id="Shape" fill="#000000"/><path d="M52,15 L51,15 C50.4477153,15 50,14.5522847 50,14 C50,13.4477153 50.4477153,13 51,13 L52,13 C52.5522847,13 53,13.4477153 53,14 C53,14.5522847 52.5522847,15 52,15 Z" id="Shape" fill="#000000"/></g></g></svg>
