<?xml version="1.0" encoding="iso-8859-1"?>
<!-- Generator: Adobe Illustrator 19.0.0, SVG Export Plug-In . SVG Version: 6.00 Build 0)  -->
<svg version="1.1" id="Capa_1" xmlns="http://www.w3.org/2000/svg" xmlns:xlink="http://www.w3.org/1999/xlink" x="0px" y="0px"
	 fill="#6a6d96" viewBox="0 0 512 512" style="enable-background:new 0 0 512 512;" xml:space="preserve">
<g>
	<g>
		<path d="M452,392h-30c-8.276,0-16-6.724-16-15s7.724-15,16-15c24.814,0,45-20.186,45-45c0-24.814-20.186-45-45-45h-61v32.763
			c17.422,6.213,30,22.707,30,42.237c0,11.567-4.508,22.02-11.704,30c7.196,7.98,11.704,18.433,11.704,30c0,24.814-20.186,45-45,45
			h-30H123.763c6.213,17.422,22.707,30,42.237,30h47.563c6.196,17.461,22.881,30,42.437,30h196c33.091,0,60-26.909,60-60
			S485.091,392,452,392z"/>
	</g>
</g>
<g>
	<g>
		<path d="M346,90c8.291,0,15-6.709,15-15s-6.709-15-15-15h-15V30h15c8.291,0,15-6.709,15-15s-6.709-15-15-15
			C312.765,0,50.46,0,15,0C6.709,0,0,6.709,0,15s6.709,15,15,15h15v30H15C6.709,60,0,66.709,0,75s6.709,15,15,15h15v242H15
			c-8.291,0-15,6.709-15,15c0,8.291,6.709,15,15,15h15v30H15c-8.291,0-15,6.709-15,15c0,8.291,6.709,15,15,15
			c114.673,0,77.038,0,331,0c8.291,0,15-6.709,15-15c0-8.291-6.709-15-15-15h-15v-30h15c8.291,0,15-6.709,15-15
			c0-8.291-6.709-15-15-15h-15V90H346z M181,302c-33.091,0-60-26.909-60-60c0-8.979,1.948-18.637,5.771-26.693l40.679-86.737
			c4.951-10.459,22.148-10.459,27.1,0l40.679,86.737C239.052,223.363,241,233.021,241,242C241,275.091,214.091,302,181,302z"/>
	</g>
</g>
<g>
</g>
<g>
</g>
<g>
</g>
<g>
</g>
<g>
</g>
<g>
</g>
<g>
</g>
<g>
</g>
<g>
</g>
<g>
</g>
<g>
</g>
<g>
</g>
<g>
</g>
<g>
</g>
<g>
</g>
</svg>
